<?xml version="1.0" encoding="utf-8"?>
<!-- Generator: Adobe Illustrator 26.0.3, SVG Export Plug-In . SVG Version: 6.00 Build 0)  -->
<svg version="1.1" id="Layer_1" xmlns="http://www.w3.org/2000/svg" xmlns:xlink="http://www.w3.org/1999/xlink" x="0px" y="0px"
	 viewBox="0 0 236 235.1" style="enable-background:new 0 0 236 235.1;" xml:space="preserve">
<style type="text/css">
	.st0{fill:#FFFFFF;}
	.st1{fill:#6E2405;}
</style>
<path class="st0" d="M236,235.1c-78.7,0-157.3,0-236,0C0,156.7,0,78.4,0,0c78.7,0,157.3,0,236,0C236,78.4,236,156.7,236,235.1z
	 M117.4,0.9C53.2,0.9,1,52.9,0.9,117.2c-0.1,64.2,51.9,116.4,116.2,116.5c64.2,0.1,116.4-51.9,116.5-116.1
	C233.8,53.2,181.7,1,117.4,0.9z"/>
<path d="M117.4,0.9C181.7,1,233.8,53.2,233.6,117.6c-0.1,64.2-52.3,116.2-116.5,116.1C52.9,233.5,0.8,181.3,0.9,117.2
	C1,52.9,53.2,0.9,117.4,0.9z M231.2,117.4c0.1-62.8-51-113.9-113.8-113.9C54.6,3.4,3.7,54.2,3.4,117.1
	C3.2,179.8,54.3,231,117.2,231.2C179.9,231.3,231.1,180.3,231.2,117.4z"/>
<path class="st0" d="M231.2,117.4c-0.1,62.9-51.2,113.9-114,113.8C54.3,231,3.2,179.8,3.4,117.1C3.7,54.2,54.6,3.4,117.3,3.4
	C180.2,3.5,231.2,54.6,231.2,117.4z M43.8,62.8c0,1.1,0,2.3,0,3.4c0.2,0.1,0.5,0.1,0.7,0.2c0.5-1,0.9-2,1.4-3.1c0.4-0.2,1-0.6,1.7-1
	c-0.1-0.2-0.2-0.4-0.3-0.6C46.1,62.2,44.9,62.5,43.8,62.8c0.3-1.4,0.8-2.9,1.3-4.7c-1.1,0-1.7,0-2.3,0c0,3.7-0.4,4.3-3.5,4.9
	c0.4-1.7,0.7-3.1,1-4.6c0.1-0.8,0.3-1.8,0-2.4c-0.8-1.3-1.9-2.5-3-3.8c0.6-0.6,1.2-1.2,1.8-1.9c1.8,1.6,3.8,2.9,5.2,4.6
	c1.3,1.6,1.8,1.1,2.6,0.1c-2.2-2-4.3-3.9-6.6-6c1.2-1.4,2.2-2.6,3.3-3.8c0.3,0.1,0.5,0.2,0.8,0.3c-0.3,1.2-0.5,2.4-0.8,3.7
	c3,0.8,5.6,0.8,7.1-1.8C52,47.8,53,48,54,48.2c0-0.2,0.1-0.4,0.1-0.7c-2-2.2-3.9-4.5-5.8-6.7c0.4-0.5,0.9-1,1.3-1.5
	c-0.6-0.2-1.2-0.4-1.6-0.6c-2.4,2.2-4.9,4.3-7,6.7c-1.4,1.8-2.5,2.6-4.8,1.5c-0.7-0.3-2,0.3-2.9,0.6c-1.6,0.6-2.6,1.8-2,3.4
	c0.4,0.9,1.8,1.4,2.9,2.2c-1.8,2.5-4.2,5.3-6.1,8.4c-1.9,3-4.4,5.8-4.9,9.6c0.9-0.5,1.5-1.2,2.1-1.8c0.6-0.5,1.3-0.9,2-1.3
	c0.1,0.7,0.4,1.6,0.1,2.2c-0.6,1.4-0.2,2.1,1.2,1.9c2-0.3,3.9-0.8,5.8-1.4c0.3-0.1,0.4-1,0.8-2c-1.9,1-3.3,1.6-4.2,2.1
	c-1.2-1.9-2.2-3.4-3.3-5.2c0.3-0.5,0.9-1.2,1.5-2.1c2,1.3,3.9,2.6,5.9,3.7c0.6,0.3,1.6,0.2,2.3,0.2c0-0.2,0-0.5,0-0.7
	C35,65,32.6,63.3,30,61.4c0.8-0.8,1.5-1.6,2.1-2.2c1.5,0.6,2.8,1,4.1,1.6c0.5,0.2,1.1,0.8,1.1,1.2c0,2.5,1.9,2.2,3.3,2
	C41.7,63.9,42.8,63.3,43.8,62.8z M149.2,19.8c0.1-0.4,0.4-0.9,0.2-1.2c-1-2.8-5.6-6.6-9.2-6.2c-1,0.1-2.3,0.2-2.8,0.8
	c-0.6,0.8-0.6,2.1-0.9,3.2c-2.7,0.3-4.4-0.9-5.3-3.8c-0.9-3.1-2.1-3.5-5.3-2.8c0,0.5-0.1,1-0.1,1.4c4.6,0.2,5.6,1,5.3,4
	c-4.5-0.2-9-0.6-13.5-0.7c-2.1-0.1-4,0.5-4.7-2.7c-0.5-2.8-3.6-3.7-6.3-2.8c0.1,1.7,1.1,1.8,2.4,1.4c1.8-0.5,2.7,0.3,2.7,2.4
	c-2.1-1.7-4.2-2.1-6.2,0.3c0.7,0.2,1.4,0.1,2.1,0.2c1.3,0,2.6,0.1,3.9,0.3c0.2,0,0.4,0.7,0.3,0.9c-0.1,0.2-0.6,0.4-0.9,0.4
	c-3.7,0.4-7.5,0.9-11.2,1.3c-0.3,0-0.6,0.5-0.7,0.6c1.1,1,2.2,1.8,2.9,2.9c0.8,1.2,1.3,2.6,1.9,4.1c-0.3,0.3-0.9,1-1.8,1.9
	c3.1,1.9,3.4-2.1,5.1-2.3c0.7,1,1.4,2,2.1,2.9c0.2-0.1,0.4-0.3,0.6-0.4c-0.3-3-0.6-6-0.9-9.1c1.3,0,2.3,0,3.6,0c0,2.3,0,4.4,0,6.6
	c0,1.5,0.5,2.1,1.6,2.2c0-2.6,0-5.2,0-7.8c0-0.5,0.5-1.5,0.8-1.5c2.4,0.1,4.8,0.3,7.2,0.5c0,0.2,0,0.5,0,0.7
	c-1.2,0.1-2.4,0.1-3.5,0.2c-1.7,0.1-1.9,1.4-1.4,2.5c0.6,1.4,1.7,2.6,2.6,3.9c0.9,1.3,1.9,2.2,3.7,1.6c0.4-0.1,1.1,0.5,1.6,0.9
	c0.5,0.4,0.9,0.9,1.6,1.6c0.4-4,0.8-7.6,1.2-11c2.7-0.5,3.2,0.6,2.8,2.6c-0.3,1.7-0.7,3.5-0.8,5.2c0,0.7,0.7,1.4,1.2,2.3
	c1.8-3.4,0-7.1,2.7-9.8c0.7,0.3,1.4,0.5,2.2,0.8c-0.5,2.9-1,5.7-1.5,8.5c0.3,0.2,0.8,0.4,1.4,0.6c0.3-1.4,0.7-2.7,0.8-4
	c0.5-4.4,0.5-4.5,4.9-4c0.1,0,0.2,0.2,0.3,0.3c-0.2,1-0.4,2-0.5,2.5c-0.9,0.4-2.2,0.8-2.1,0.9c0.3,1.1,0.7,2.2,1.1,3.2
	c3.1-1.1,2.6-4,3.7-6c3.4,0.8,3.6,1.2,2.5,4.2c-0.5,1.4-1,2.7-1.3,4.2c-0.1,0.6,0.2,1.4,0.4,2c0.2,0,0.4-0.1,0.6-0.1
	c1-2.8,2.1-5.6,3.2-8.4c2.5,1,5,2,7.6,3c-0.2,0.5-0.4,0.8-0.5,1.2c0-0.2,0-0.5,0-0.7c-1.9-0.3-3.9-0.6-5.8-0.9
	c-0.3,4.7,0.4,5.9,3.4,6.6c-0.2,0.7-0.4,1.5-0.7,2.3c0.5,0.2,0.9,0.5,1.4,0.7c1.8-4.3,3.5-5.3,5.8-3c-1.1,0.7-2.1,1.4-3.2,2.1
	c0.3,0.5,0.8,1.1,1.2,1.8c4-2.6,4-4.5,0.3-7c-0.3-0.2-0.3-0.8-0.6-1.9c2.7,1.3,4.7,2.2,6.7,3.2c-0.9,3.4-4.2,5.6-3.5,10
	c2-3.2,3.7-5.8,5.4-8.5c0.7,0.4,1.3,0.6,1.9,0.9c0.2-0.1,0.3-0.2,0.5-0.3c-0.5-0.9-1.7-2-1.5-2.5c1.2-2.9-0.5-4.8-1.8-6.8
	c-1.2-2-4.2-3-6-2.2c-1.9,0.9-1.5,2.4-0.3,4.4C155.8,22.7,152.5,21.2,149.2,19.8L149.2,19.8z M117.1,30.2c-49,0-88.7,39.7-88.8,88.6
	c-0.1,49,39.6,88.7,88.6,88.8c49.1,0.1,88.9-39.7,88.9-88.8C205.8,70,166.1,30.2,117.1,30.2z M190,63.7c0.8-0.1,1.3-0.1,1.5-0.3
	c1.8-1.3,3.6-2.6,5.4-3.9c0.4-0.3,1.5-0.4,1.7-0.2c1.5,2.3,2.9,4.6,4.4,7.1c-0.9,0.4-1.5,0.7-2,1c-1.1-1.6-1.9-3.1-3-4.5
	c-0.2-0.3-1.3-0.5-1.3-0.4c-0.5,1-0.9,2-1.2,3c-0.1,0.2,0.4,0.6,0.7,0.9c0.7-0.3,1.2-0.6,1.8-0.8c1.8,2.6,1.8,2.5-1,4.4
	c-0.7,0.5-1.1,1.4-1.6,2.1c2.3-0.7,4.5-1.4,6-2.7c1.5-1.3,2.5-1.3,3.9,0.1c0.2-0.9,0.4-1.7,0-2.3c-1.4-2.6-2.9-5.3-4.6-7.8
	c-2-2.9-4.3-5.7-6.4-8.5c-0.2,0.1-0.3,0.1-0.5,0.2c0,0.8,0,1.6,0,3.1c-1.3,0.5-2.8,1.4-4.3,1.3c-0.8,0-1.6-1.8-2.4-2.7
	c1.4-0.1,2.3,0.4,3.1,0.3c0.9-0.1,2.3-0.8,2.4-1.4c0.2-1.2,0.1-2.9-0.7-3.7c-3.5-3.5-7.3-6.9-11.1-10.2c-2-1.7-4.2-3.1-6.3-4.6
	c-0.3,0.3-0.6,0.6-0.8,0.9c0.7,0.9,1.4,1.8,2.2,2.7c-0.5,0.7-1,1.5-1.6,2.3c-0.6-0.5-1.2-1-1.8-1.4c-0.3,0.1-0.5,0.1-0.8,0.2
	c0.2,2.8,0.5,5.6,0.7,8.7c3.3-1.9-0.3-3.8,1.1-6c0.9,0.8,1.8,1.6,2.7,2.3c1,0.9,1.3,1.5,0,2.5c-0.5,0.3-0.4,1.6-0.5,2.4
	c2.3-1.8,4-3.7,5.7-5.6c0.9-1,1.7-0.7,2.3,0.1c1,1.3,2.7,2.7,0.1,4c-0.7-0.4-1.4-0.7-2-1c-0.4,0.7-1,1.4-1,2.1c-0.1,2,0,4.1,0,6.4
	c3.3-1.5,0.3-3.7,1.6-5.7c0.6,0.5,1.1,1,1.6,1.5c0.9,1,2.2,2,2.3,3.2c0.2,2.1,1,3.5,3,4.5c-0.8,0.5-1.3,0.9-1.9,1.3
	c0,0.2,0,0.5-0.1,0.7c0.6,0.1,1.4,0.4,1.8,0.2c2.1-1.5,4-3.2,6.1-4.8c0.6,0.8,1.1,1.7,1.5,2.3C195,59.8,191.4,60.3,190,63.7z
	 M80.2,23.3c2.8-1,5.5-1.9,8.3-2.9c1.8,2.9-1.2,2.1-2.1,2.8c-0.9,0.8-1.8,1.7-2.6,2.6c1,0.6,2,1.2,3.5,2.2c0-1.6,0-2.5,0-3.4
	c2.6-0.8,2.8-0.6,3.5,2.4c0.2,0.7,1,1.3,1.6,2c0.2-0.1,0.4-0.3,0.5-0.4c-0.7-2.8-1.5-5.5-2.3-8.4c0.6-0.3,1.3-0.7,2.2-1.1
	c-0.9-0.4-1.7-1-2.3-0.8c-5.9,1.9-11.8,3.8-17.6,6.1c-3.3,1.3-6.2,3.5-9.3,5.2c-2.7-3.7-4.7-4.2-8-2.3c0.2,1.3,0.4,2.6,0.7,3.8
	c0.1,0.3,0.5,0.7,0.7,0.7c0.4-0.1,1.1-0.3,1.2-0.6c0.9-2.1,2.3-1.8,4.3-1.3c-2.3,1.6-4.3,3-6.4,4.4c1.3,0.5,2.6,0.6,3.1,1.3
	c2.1,3,3.5,3.4,6.9,1.5c0.6,0.7,1.2,1.4,1.9,2.1c1.6-0.4,1-1.2,0.3-2.2c-1.6-2.3-1.3-3.8,1.2-5.3c0.2,1.4,0.5,2.8,0.7,4.3
	c0.6-0.2,1.7-0.6,1.7-0.7c-0.3-1.2-0.6-2.6-1.3-3.6c-1.6-2-3.3-0.6-5.4,0.6c0.2-1,0.1-1.9,0.4-2.1c3.1-1.7,6.1-4.2,9.8-0.8
	c-0.6,0.1-1.3,0.1-1.7,0.4c-0.5,0.4-0.6,1.1-0.9,1.7c0.6,0.2,1.4,0.8,1.7,0.6c1.4-1.2,2.3-0.6,3.5,0.4c0.4,0.4,1.3,0.3,2,0.2
	c0.2,0,0.2-0.9,0.3-1.3c-1.4-0.4-2.6-0.7-4-1.1c2.5-2.1,2.6-3.7,0.5-5.8c0.6-0.2,1.3-0.4,2.1-0.7c1.1,2.7,2.1,5.3,3.2,7.9
	c0.4,0,0.9-0.1,1.5-0.2C82.4,29,81.4,26.2,80.2,23.3z M22.6,148.8c0.8-3,5.1-3.9,4.3-7.9c-3.4,1.3-6.4,2.3-9.4,3.5
	c-0.5,0.2-0.7,1-1.1,1.6c0.2,0.1,0.4,0.3,0.6,0.4c2-0.7,3.9-1.4,5.9-2.1c-0.9,2.9-5,3.8-4.3,7.8c3.5-1.3,6.6-2.4,9.6-3.6
	c0.4-0.1,0.6-0.7,0.9-1.1c-0.5-0.2-1.1-0.7-1.5-0.6C26,147.4,24.4,148.1,22.6,148.8z M206.7,151.2c-2.3,4.2-2.7,5.4-1.3,6.3
	c1.5,1,3.4,1.8,5.2,1.9c0.7,0.1,1.6-1.8,2.5-3c3.5,1.9-1.6,2.8-1,4.6c1.7,0.9,2.6-0.2,3.3-1.5c0.8-1.6,0.9-3.3-0.9-4.3
	C212.1,153.8,209.5,152.6,206.7,151.2z M18.4,109.9c-0.7,2.9-2.6,3.8-5.2,4c2.4,1.5,2.9,3.5,2.1,6.3c2.2-2.6,4.3-1.3,6.9,0.1
	c-1.6-3.1-0.7-4.8,2.1-6.6C21,113.7,19.2,112.7,18.4,109.9z M212.8,113.3c2.7,1.6,3.4,3.6,2.5,6.2c2.2-1.8,4.3-1.6,6.5-0.1
	c-1.3-2.7-0.1-4.5,1.8-6.2c-2.9,0.2-4.3-1.4-5.3-3.8C218,112.6,215.8,113,212.8,113.3z M41.5,187.3c1.4-1.2,2.8-2.5,4.3-3.9
	c1.2-1.1,1.1-2.3,0.2-3.5c-1-1.3-2.1-2.1-3.9-0.9c0.2,0.4,0.3,0.8,0.6,1c0.8,0.5,2.4,0.1,2,1.9c-0.9-0.3-1.9-0.4-2.8-0.8
	c-1.4-0.6-2.6-0.3-3.2,1c-0.3,0.8-0.2,2.2,0.3,2.9C39.6,186,40.8,186.6,41.5,187.3z M132.4,219.8c-0.3-1.9-0.4-4-0.9-5.9
	c-0.2-0.8-1.3-1.9-2.1-1.9c-1-0.1-2.1,0.7-3,1.2c-0.2,0.1-0.2,0.9-0.1,1.2c0.1,0.2,0.8,0.3,1,0.2c0.8-0.6,1.4-1.6,2.5-0.4
	c-0.7,0.6-1.4,1.2-2.1,1.7c-0.2,0.2-0.7,0.3-0.7,0.5c-0.2,1.1-0.5,2.3-0.2,3.2c0.2,0.6,1.5,1,2.3,1
	C130,220.7,131.1,220.2,132.4,219.8z M180.9,196.1c-0.4,0.7-0.6,1.7-1.2,2.1c-0.5,0.4-1.4,0.1-2.2,0.1c0-0.2,0-0.5,0-0.7
	c1.1-0.9,2.1-1.8,3.2-2.7c-1.9-2.7-3.7-3.4-5.3-2.2c-1.6,1.2-1.5,3.7,0.3,5.9c0.2,0.2,0.4,0.5,0.6,0.7c1.1,1,2.3,1.8,3.8,0.9
	C181.7,199.3,182.2,198.1,180.9,196.1z M26.3,155.5c-0.8-0.8-1.3-1.8-2.1-2.2c-0.9-0.4-2.3-0.6-2.9-0.1c-0.6,0.5-1,1.9-0.8,2.8
	c0.3,1.2,1.3,2.3,1.9,3.4c1.6-0.8,3.3-1.7,5-2.5c1.5-0.7,1.8-1.9,1.2-3.4c-0.6-1.4-1.4-2.7-3.2-2C24.7,153.2,28.3,153.4,26.3,155.5z
	 M138.9,207.3c1,3.6,1.8,6.9,2.7,10.1c0.1,0.4,0.8,0.8,1.2,1.1c0.2-0.6,0.5-1.2,0.5-1.7c-0.2-1.2-0.7-2.4-0.8-3.6
	c-0.1-0.6,0.5-1.3,0.8-1.9c0.5,0.4,1.3,0.8,1.5,1.3c0.6,1.6,1,3.2,1.4,4.9c0.3,0.1,0.5,0.1,0.8,0.2c0.2-0.6,0.6-1.2,0.5-1.8
	c-0.2-1.2-0.5-2.5-1-3.6c-0.4-1-1-2.3-1.9-2.7c-0.7-0.4-2,0.4-3.1,0.6C140.6,209.5,141.9,206.8,138.9,207.3z M181.8,183.4
	c2.9,2.9,5.6,5.5,8.8,8.7c-0.2-1.1-0.1-1.9-0.4-2.3c-0.8-1.1-2-2-2.8-3.2c-0.3-0.5,0-1.4,0-2.1c0.6,0.1,1.4,0.1,1.8,0.5
	c1.3,1.1,2.4,2.4,3.6,3.6c0.3-0.1,0.5-0.2,0.8-0.2c-0.1-0.6,0-1.4-0.3-1.8c-0.8-1-1.8-1.9-2.8-2.9c-2.4-2.3-3.7-2-4.8,1.1
	C184.4,184.6,184.1,181.6,181.8,183.4z M96.4,215.2c0.7-3.2,0.1-5.1-1.7-5.6c-2-0.5-3.1,0.6-3.8,2.3c-1,2.4-0.6,5.1,1.1,5.9
	c1.6,0.8,3,0.6,3.8-1.5c-0.8-0.1-1.6,0.3-2.2,0.1c-0.7-0.3-1.1-1.1-1.7-1.7c0.2-0.2,0.3-0.3,0.5-0.5
	C93.7,214.6,94.9,214.9,96.4,215.2z M120.4,216.3c1.2-0.1,2.3-0.2,3.6-0.3c-0.1-3.1-2.6-1.1-3.9-2.2c0-0.6-0.1-1.4-0.1-2.3
	c0.8-0.1,1.4-0.1,2.1-0.2c0.7-0.1,1.4-0.1,2.1-0.1c0-2.1-2.2-2.5-6.1-1.3c0.2,3.8,0.4,7.6,0.6,11.4
	C119.8,221.1,119.8,221.1,120.4,216.3z M151.4,208.8c0,2.7,1.9,5.3,4,5.3c1.8,0,3.2-1.5,3.2-3.6c0-2.6-2.1-5.2-4.2-5.2
	C152.8,205.4,151.5,206.9,151.4,208.8z M33.4,165.7c-2.4,0-4.9,2.3-4.8,4.5c0,1.8,1.4,3.3,3.2,3.4c2.4,0.1,4.9-2.2,5-4.4
	C36.9,167.2,35.4,165.7,33.4,165.7z M198.5,170c-1.8,0-3.2,1.4-3.2,3.3c0,2.2,2.5,4.6,4.8,4.7c1.9,0.1,3.3-1.3,3.3-3.2
	C203.4,172.5,200.9,170,198.5,170z M206.8,150.8c2.6,0.2,4.9,0.3,7.3,0.4c1.3,0.1,2.3,0.4,2.3,2c0,0.3,0.6,0.7,0.9,1
	c0.3-0.3,0.8-0.6,0.8-1c0-0.8,0-1.9-0.5-2.3c-2.7-2.3-5.5-4.5-8.7-7c-0.6,3.4,2.9,3.4,3.6,5.3C207.5,149.2,207.5,149.2,206.8,150.8z
	 M206.1,167.1c1.9,0.1,3.4-1.1,3.5-3c0.1-2.2-2.1-4.5-4.6-4.7c-2.1-0.2-3.5,1-3.6,3.1C201.3,164.8,203.5,167,206.1,167.1z
	 M66.7,200.5c0.4-2.7-0.7-3.8-2.3-4.2c-0.8-0.2-2.1,0.2-2.6,0.7c-1.2,1.2-0.5,2.6,0.4,3.8c0.4,0.6,0.8,1.2,1.2,1.8
	c-0.2,0.2-0.5,0.4-0.7,0.7c-1-1-2-2-3.1-3.2c-0.2,0.6-0.3,0.8-0.3,1c-0.1,1.9,0.8,3.1,2.5,3.5c0.9,0.2,2.4-0.3,3-1
	c1.2-1.3,0.2-2.6-0.7-3.8c-0.4-0.5-0.7-1.2-1.1-1.8c0.2-0.2,0.4-0.3,0.6-0.5C64.6,198.4,65.5,199.2,66.7,200.5z M162.5,211.6
	c0.1-0.2,0.2-0.4,0.3-0.6c-0.7-1.6-1.6-3.2-2.2-4.9c-0.2-0.5,0.4-1.2,0.6-1.8c0.6,0.3,1.3,0.4,1.6,0.9c0.9,1.5,1.6,3,2.7,5.2
	c0.4-1,1-1.7,0.8-2.1c-0.8-1.8-1.6-3.6-2.6-5.2c-0.7-1.1-1.8-1.4-3-0.6c-0.9,0.6-1.8,1.3-2.9,2c1,2,2,4.2,3.2,6.3
	C161.1,211.3,161.9,211.4,162.5,211.6z M108.5,216.1c0-2.5-1.4-4.2-3.4-4.2c-2.1,0-3.6,2-3.5,4.7c0,2.4,1.3,4,3.3,4.1
	C106.9,220.7,108.5,218.8,108.5,216.1z M198.3,182.1c0.2-0.1,0.4-0.1,0.6-0.2c-0.1-0.6,0.1-1.4-0.2-1.8c-1.3-1.3-2.6-2.4-4.1-3.5
	c-1.1-0.8-2.2-0.8-3.1,0.4c-0.7,1-1.3,2.1-2.1,3.2c2,1.7,3.9,3.5,5.9,5.2c0.2-0.1,0.5-0.1,0.7-0.2c-0.1-0.6-0.1-1.4-0.5-1.9
	c-0.7-0.9-1.8-1.5-2.5-2.4c-0.5-0.6-0.4-1.6-0.6-2.4c0.7,0.2,1.6,0.1,2.2,0.5C196,180,197.1,181.1,198.3,182.1z M83.7,215.1
	c0.7-2.1,1.6-4.3,2.2-6.5c0.1-0.5-0.4-1.2-0.6-1.8c-0.2,0.1-0.4,0.1-0.7,0.2c-0.5,1.5-0.9,3-1.6,4.4c-0.3,0.6-1.2,1-1.8,1.4
	c-0.2-0.7-0.6-1.5-0.5-2.2c0.2-1.2,0.8-2.4,1.1-3.6c0.1-0.5-0.4-1.2-0.6-1.8c-0.2,0.1-0.5,0.2-0.7,0.2c-0.6,1.9-1.3,3.7-1.9,5.6
	c-0.5,1.6,0,2.8,1.8,3.2C81.3,214.6,82.3,214.8,83.7,215.1z M32.9,177.3c0.3,0,0.6,0.1,0.9,0.1c1.3-1,2.6-2.1,4-2.9
	c0.4-0.3,1.2,0.1,1.8,0.2c-0.1,0.6,0,1.3-0.4,1.7c-0.9,1-2.1,1.7-3,2.7c-0.4,0.4-0.4,1.2-0.5,1.9c0.2,0.1,0.5,0.2,0.7,0.3
	c1.5-1.3,3.2-2.3,4.4-3.8c0.6-0.7,0.7-2.3,0.3-3.3c-0.4-1.1-1.6-1.8-2.6-2.8c-1.7,1.4-3.5,2.8-5.1,4.3
	C32.9,175.9,33,176.8,32.9,177.3z M133.4,217.8c1,2.2,2.5,2.6,4,1.9c0.9-0.4,1.9-1.7,2.1-2.7c0.3-1.8-1.3-2.5-2.9-2.7
	c-0.7-0.1-1.4-0.3-2.1-0.4c0-0.3,0-0.5,0.1-0.8c1.2,0,2.5,0,4,0c-1-2.1-2.3-2.4-3.7-1.7c-0.9,0.5-1.7,1.6-1.9,2.5
	c-0.2,1.6,1,2.3,2.5,2.5c0.8,0.1,1.6,0.3,2.3,0.5c0,0.3,0,0.6-0.1,0.9C136.4,217.8,135.1,217.8,133.4,217.8z M56.8,190.8
	c-1.3,1.8-2.7,3.8-4,5.8c-0.2,0.4,0.2,1.1,0.5,2.2c1.5-2,2.4-3.4,3.5-4.6c0.4-0.4,1.2-0.3,1.8-0.5c0.1,0.6,0.3,1.4,0.1,1.9
	c-0.6,1.2-1.6,2.2-2.2,3.4c-0.3,0.5,0,1.3,0,2c0.3,0,0.5,0,0.8,0.1c1.1-1.7,2.3-3.3,3.4-5c0.8-1.2,0.5-2.4-0.7-3.3
	C59.1,192.1,58,191.5,56.8,190.8z M168.6,196.4c1.8,2.8,3.5,5.4,5.2,8c0.3,0,0.6-0.1,0.8-0.1c0-0.7,0.2-1.6-0.1-2.2
	c-1.3-2.3-2.8-4.5-4.3-6.8c0.8-0.6,1.4-1.1,2.2-1.7c-0.5-0.5-0.8-1-1.2-1.4c-2,1.4-3.9,2.6-5.9,4c0.3,0.6,0.7,1.1,1,1.6
	C167.1,197.3,167.7,196.9,168.6,196.4z M185,188.6c-0.2-0.4-0.4-0.7-0.6-1.1c-1.2,0.2-2.7,0-3.4,0.7c-0.7,0.8-1.1,2.5-0.8,3.5
	c0.4,1.2,1.5,2.4,2.5,3.2c1.3,1.1,2.8,1.1,4-0.2c1.1-1.3,1.1-2.6-0.1-4.2c-1.3,0.8-0.9,5.6-4.1,1.9C180.2,189.5,183,189.3,185,188.6
	z M111.2,221.1c0.2-0.1,0.4-0.2,0.6-0.3c0.2-1.9,0-4,0.6-5.8c0.3-1.1,2.2-1.8,0-2.9c0,0,0.3-0.8,0.5-1.1c0.3-0.5,0.7-0.9,1.1-1.3
	c-0.8-0.1-2.1-0.6-2.3-0.3c-0.9,1.2-2.5,3.1-2.1,3.9c1.1,2.2,0.4,4.2,0.6,6.3C110.3,220.2,110.9,220.6,111.2,221.1z M71.6,197.3
	c-1.2,1.1-2.6,1.9-3.5,3.1c-0.6,0.9-0.6,2.2-1,3.3c-0.3,0.9-1,1.8-0.9,2.6c0.1,0.7,1.1,1.3,1.7,1.9c0.3-0.5,0.9-0.9,0.8-1.3
	c-0.3-2.3,0.2-3.5,2.3-4.7c0.4-0.2,0.6-0.9,0.7-1.3C71.8,199.9,71.7,199,71.6,197.3z M89.4,205.5c-0.9,1.1-2.2,2.1-2.7,3.3
	c-0.6,1.7-0.6,3.5-0.7,5.3c0,0.8,0.2,1.7,0.6,2.3c0.2,0.3,1.1,0.2,1.7,0.2c0.2,0,0.4-0.8,0.3-1c-1.1-2.2-0.9-4,1.4-5.4
	c0.3-0.2,0.4-0.9,0.3-1.3C90.2,208,89.9,207.1,89.4,205.5z M33.1,157.2c-1.3,0-2.8-0.4-4,0.1c-1.5,0.6-2.6,2.1-3.9,3
	c-1.9,1.3-2.1,1.9-0.3,3.8c0.2-0.1,0.5-0.2,0.6-0.3c1-2.4,2.4-4,5.3-3c0.2,0.1,0.7-0.4,0.8-0.7C32,159.3,32.4,158.5,33.1,157.2z
	 M78.6,201.1c-1,0.9-2.4,1.7-3,2.9c-0.8,1.6-1,3.5-1.4,5.3c-0.1,0.7-0.1,1.6,0.2,2.2c0.2,0.4,1.1,0.5,1.7,0.6c0.2,0,0.6-0.8,0.6-1.1
	c-0.4-3-0.2-3.5,2-5.1c0.3-0.2,0.6-0.8,0.5-1.2C79.1,203.6,78.8,202.7,78.6,201.1z M57,185.9c-0.3,0-0.6,0-0.9,0
	c-2.3,2.9-4.6,5.8-6.9,8.6c0.1,0.2,0.2,0.5,0.3,0.7c0.6-0.2,1.5-0.1,1.9-0.5c1.9-2.2,3.7-4.5,5.4-6.8
	C57.1,187.4,56.9,186.5,57,185.9z M205.3,171.7c0.3-0.1,0.6-0.2,0.8-0.3c-0.2-0.6-0.3-1.4-0.7-1.7c-2.4-1.7-4.9-3.4-7.5-5
	c-0.4-0.2-1-0.1-1.6-0.1c0.2,0.5,0.3,1.3,0.7,1.6C199.8,168.2,202.5,169.9,205.3,171.7z M51.4,181.1c-0.3-0.1-0.6-0.1-0.9-0.2
	c-2.5,2.7-5,5.4-7.6,8.2c0.6,0.5,1,0.8,1.4,1.1c2.3-2.5,4.6-4.8,6.7-7.2C51.3,182.6,51.3,181.7,51.4,181.1z M149,207.8
	c-0.3-0.1-0.5-0.1-0.8-0.2c-0.2,0.6-0.6,1.2-0.5,1.6c0.5,2,1.2,3.9,1.9,5.8c0.2,0.4,0.8,0.7,1.2,1c0.1-0.5,0.5-1.1,0.4-1.5
	C150.6,212.3,149.8,210.1,149,207.8z M25.5,165.5c1.1,1.6,2.7,1.1,6.8-2c0.4-0.3,0.4-1.2,0.6-1.9c-0.2-0.1-0.4-0.2-0.6-0.2
	C30,162.8,27.8,164.1,25.5,165.5z M73.9,201.5c-0.2,0-0.4,0-0.7,0.1c-1,2.2-2,4.4-3,6.6c-0.1,0.3,0.2,0.9,0.3,1.3
	c0.4-0.2,1.1-0.2,1.2-0.6c1-1.9,1.9-3.8,2.6-5.7C74.6,202.8,74.1,202.1,73.9,201.5z"/>
<path d="M117.1,30.2c49,0,88.7,39.7,88.7,88.7c0,49.1-39.8,88.8-88.9,88.8c-49-0.1-88.6-39.9-88.6-88.8
	C28.4,69.9,68.1,30.2,117.1,30.2z M203.3,118.9c0-47.6-38.9-86.3-86.6-86.2c-47.2,0.1-85.9,39-85.9,86.3c0,47.3,38.6,86.1,85.9,86.2
	C164.4,205.3,203.3,166.5,203.3,118.9z"/>
<path d="M149.2,19.7c3.3,1.5,6.5,3,10.5,4.8c-1.2-2-1.6-3.5,0.3-4.4c1.9-0.9,4.8,0.2,6,2.2c1.2,2.1,3,4,1.8,6.8
	c-0.2,0.5,0.9,1.7,1.5,2.5c-0.2,0.1-0.3,0.2-0.5,0.3c-0.6-0.3-1.2-0.6-1.9-0.9c-1.7,2.6-3.4,5.3-5.4,8.5c-0.7-4.4,2.6-6.6,3.5-10
	c-2-1-4-1.9-6.7-3.2c0.3,1.1,0.3,1.8,0.6,1.9c3.7,2.5,3.6,4.4-0.3,7c-0.4-0.6-0.8-1.3-1.2-1.8c1.1-0.7,2.2-1.4,3.2-2.1
	c-2.3-2.2-4-1.3-5.8,3c-0.5-0.2-0.9-0.5-1.4-0.7c0.2-0.8,0.4-1.5,0.7-2.3c-3-0.7-3.7-1.9-3.4-6.6c2,0.3,3.9,0.6,5.8,0.9
	c0,0.2,0,0.5,0,0.7c0.2-0.3,0.3-0.7,0.5-1.2c-2.5-1-5.1-2-7.6-3c-1.1,2.8-2.1,5.6-3.2,8.4c-0.2,0-0.4,0.1-0.6,0.1
	c-0.1-0.7-0.5-1.4-0.4-2c0.3-1.4,0.8-2.8,1.3-4.2c1.1-3,0.9-3.4-2.5-4.2c-1.1,2-0.6,4.8-3.7,6c-0.4-1-0.9-2.1-1.1-3.2
	c0-0.1,1.2-0.5,2.1-0.9c0.1-0.6,0.3-1.5,0.5-2.5c-0.1-0.1-0.2-0.3-0.3-0.3c-4.4-0.5-4.4-0.4-4.9,4c-0.1,1.3-0.5,2.5-0.8,4
	c-0.6-0.3-1.1-0.5-1.4-0.6c0.5-2.8,1-5.6,1.5-8.5c-0.8-0.3-1.5-0.5-2.2-0.8c-2.7,2.6-1,6.3-2.7,9.8c-0.5-0.9-1.2-1.6-1.2-2.3
	c0.1-1.7,0.4-3.5,0.8-5.2c0.4-2-0.1-3.1-2.8-2.6c-0.4,3.4-0.7,7-1.2,11c-0.7-0.7-1.1-1.2-1.6-1.6c-0.5-0.4-1.2-1.1-1.6-0.9
	c-1.8,0.7-2.8-0.3-3.7-1.6c-0.9-1.3-2-2.5-2.6-3.9c-0.5-1.1-0.3-2.4,1.4-2.5c1.2-0.1,2.4-0.1,3.5-0.2c0-0.2,0-0.5,0-0.7
	c-2.4-0.2-4.8-0.4-7.2-0.5c-0.3,0-0.8,1-0.8,1.5c-0.1,2.6,0,5.2,0,7.8c-1.2-0.1-1.6-0.6-1.6-2.2c0-2.2,0-4.3,0-6.6
	c-1.3,0-2.3,0-3.6,0c0.3,3,0.6,6.1,0.9,9.1c-0.2,0.1-0.4,0.3-0.6,0.4c-0.7-1-1.4-1.9-2.1-2.9c-1.8,0.2-2.1,4.3-5.1,2.3
	c0.8-0.9,1.5-1.6,1.8-1.9c-0.7-1.5-1.1-2.9-1.9-4.1c-0.7-1.1-1.9-1.8-2.9-2.9c0.1-0.1,0.4-0.5,0.7-0.6c3.7-0.5,7.5-0.9,11.2-1.3
	c0.3,0,0.8-0.2,0.9-0.4c0.1-0.3-0.2-0.9-0.3-0.9c-1.3-0.1-2.6-0.2-3.9-0.3c-0.7,0-1.4,0.1-2.1-0.2c2-2.5,4.1-2,6.2-0.3
	c0-2.1-0.9-2.9-2.7-2.4c-1.4,0.4-2.3,0.4-2.4-1.4c2.7-0.9,5.8,0.1,6.3,2.8c0.7,3.3,2.6,2.7,4.7,2.7c4.5,0.1,9,0.4,13.5,0.7
	c0.3-3-0.7-3.8-5.3-4c0-0.5,0.1-1,0.1-1.4c3.2-0.7,4.4-0.2,5.3,2.8c0.9,2.9,2.6,4,5.3,3.8c0.3-1.1,0.2-2.4,0.9-3.2
	c0.5-0.6,1.8-0.7,2.8-0.8c3.7-0.4,8.3,3.4,9.2,6.2C149.5,18.9,149.3,19.4,149.2,19.7c-1-1.1-1.9-2.5-3-3.5c-2.1-2-5.1-2.4-7.1-1.1
	c-0.4,0.3-0.8,0.7-0.9,1.1c0,0.3,0.6,0.8,1,0.9C142.6,18,145.9,18.8,149.2,19.7z M166.4,28.3c1-3.3-0.4-5.9-3.6-6.4
	c-0.8-0.1-1.8,0.6-2.7,1c0.4,0.8,0.5,2,1.1,2.5C162.8,26.5,164.6,27.3,166.4,28.3z M123,22.2c-0.9,0.3-1.8,0.6-2.6,1
	c0,0,0.1,0.8,0.2,0.8c1,0.1,2,0,3,0c0.1,0,0.1-0.1,0.2-0.2c1.2-0.7,2.9-5.7,2.2-6.8c-0.2-0.4-1.1-0.4-1.7-0.6
	c-0.1,1.2-0.2,2.1-0.3,2.9c-1.3,0-2.4-0.1-3.5,0c-0.5,0-1,0.4-1.5,0.6c0.5,0.3,1,0.7,1.6,0.8C121.6,20.9,122.9,20.5,123,22.2z
	 M103.4,17.6c0.2,1,0.2,1.7,0.4,2.3c0.2,0.7,0.4,1.5,0.6,2.2c3.4-0.8,3.6-1.2,2.4-5.3C105.7,17.1,104.6,17.3,103.4,17.6z
	 M156.4,27.4c-1.6,0-2.9,0-4.2,0c0,0.5-0.1,1.2,0.1,1.4C153.8,29.7,155.1,29.6,156.4,27.4z"/>
<path d="M190,63.7c1.4-3.5,5-4,6.8-6.7c-0.4-0.6-0.9-1.4-1.5-2.3c-2.1,1.7-4.1,3.3-6.1,4.8c-0.4,0.3-1.2-0.1-1.8-0.2
	c0-0.2,0-0.5,0.1-0.7c0.6-0.4,1.1-0.8,1.9-1.3c-1.9-1-2.8-2.4-3-4.5c-0.1-1.1-1.5-2.1-2.3-3.2c-0.5-0.6-1.1-1-1.6-1.5
	c-1.3,2,1.7,4.2-1.6,5.7c0-2.3-0.1-4.4,0-6.4c0.1-0.7,0.7-1.4,1-2.1c0.7,0.3,1.4,0.7,2,1c2.5-1.3,0.9-2.7-0.1-4
	c-0.6-0.8-1.4-1.1-2.3-0.1c-1.6,1.9-3.3,3.8-5.7,5.6c0.2-0.8,0-2.1,0.5-2.4c1.4-1,1-1.7,0-2.5c-0.9-0.8-1.8-1.5-2.7-2.3
	c-1.4,2.1,2.2,4.1-1.1,6c-0.3-3.1-0.5-5.9-0.7-8.7c0.3-0.1,0.5-0.1,0.8-0.2c0.6,0.5,1.2,0.9,1.8,1.4c0.6-0.8,1.1-1.6,1.6-2.3
	c-0.8-0.9-1.5-1.8-2.2-2.7c0.3-0.3,0.6-0.6,0.8-0.9c2.1,1.5,4.3,2.9,6.3,4.6c3.8,3.3,7.5,6.6,11.1,10.2c0.7,0.8,0.9,2.5,0.7,3.7
	c-0.1,0.6-1.5,1.3-2.4,1.4c-0.8,0.1-1.8-0.4-3.1-0.3c0.8,1,1.6,2.7,2.4,2.7c1.5,0.1,3-0.9,4.3-1.3c0-1.4,0-2.2,0-3.1
	c0.2-0.1,0.3-0.1,0.5-0.2c2.1,2.8,4.4,5.6,6.4,8.5c1.7,2.5,3.1,5.1,4.6,7.8c0.3,0.6,0.2,1.5,0,2.3c-1.4-1.4-2.4-1.4-3.9-0.1
	c-1.6,1.3-3.7,2-6,2.7c0.5-0.7,0.9-1.7,1.6-2.1c2.8-1.9,2.8-1.8,1-4.4c-0.6,0.3-1.1,0.5-1.8,0.8c-0.2-0.3-0.7-0.7-0.7-0.9
	c0.3-1,0.7-2.1,1.2-3c0-0.1,1.1,0.1,1.3,0.4c1,1.4,1.9,2.9,3,4.5c0.5-0.2,1.1-0.5,2-1c-1.5-2.5-2.9-4.9-4.4-7.1
	c-0.2-0.2-1.3-0.1-1.7,0.2c-1.8,1.2-3.6,2.6-5.4,3.9C191.3,63.6,190.8,63.6,190,63.7z M184.5,48.6c1.5,0.8,2.9,1.5,4.8,2.4
	c-0.3-2.3,0-4.4-2.6-5.3C186,46.6,185.4,47.5,184.5,48.6z M180.9,40.2c-1.3-1-2.4-1.8-3.5-2.7c-0.6,1.7-2.7,3.1,0.1,4.4
	C179.7,43,179.6,40.8,180.9,40.2z"/>
<path d="M43.8,62.9c-1.1,0.4-2.1,1.1-3.2,1.2c-1.5,0.2-3.3,0.6-3.3-2c0-0.4-0.7-1-1.1-1.2c-1.3-0.6-2.6-1.1-4.1-1.6
	c-0.6,0.6-1.2,1.3-2.1,2.2c2.6,1.9,5,3.6,7.5,5.3c0,0.2,0,0.5,0,0.7c-0.8-0.1-1.7,0.1-2.3-0.2c-2-1.1-3.9-2.4-5.9-3.7
	c-0.6,0.9-1.2,1.6-1.5,2.1c1.1,1.7,2.1,3.3,3.3,5.2c0.9-0.5,2.3-1.1,4.2-2.1c-0.4,1-0.5,1.9-0.8,2c-1.9,0.6-3.8,1.1-5.8,1.4
	c-1.4,0.2-1.8-0.5-1.2-1.9c0.3-0.6-0.1-1.5-0.1-2.2c-0.7,0.4-1.4,0.8-2,1.3c-0.7,0.6-1.2,1.4-2.1,1.8c0.6-3.8,3.1-6.6,4.9-9.6
	c1.9-3.1,4.3-6,6.1-8.4c-1.1-0.8-2.5-1.3-2.9-2.2c-0.7-1.6,0.4-2.8,2-3.4c1-0.3,2.2-1,2.9-0.6c2.2,1.1,3.3,0.3,4.8-1.5
	c2-2.5,4.6-4.5,7-6.7c0.4,0.2,1,0.4,1.6,0.6c-0.4,0.5-0.8,1-1.3,1.5c1.9,2.2,3.9,4.4,5.8,6.7c0,0.2-0.1,0.4-0.1,0.7
	c-1-0.2-2-0.4-3.3-0.7c-1.5,2.6-4.2,2.6-7.1,1.8c0.3-1.3,0.6-2.5,0.8-3.7c-0.3-0.1-0.5-0.2-0.8-0.3c-1,1.2-2.1,2.5-3.3,3.8
	c2.3,2.1,4.4,4,6.6,6c-0.8,1-1.4,1.6-2.6-0.1c-1.4-1.8-3.4-3.1-5.2-4.6c-0.6,0.7-1.2,1.3-1.8,1.9c1.1,1.3,2.2,2.5,3,3.8
	c0.3,0.6,0.2,1.6,0,2.4c-0.2,1.4-0.6,2.9-1,4.6c3.1-0.6,3.5-1.2,3.5-4.9c0.6,0,1.2,0,2.3,0C44.6,59.9,44.2,61.4,43.8,62.9L43.8,62.9
	z M46.1,48.7c0.2,0.2,0.4,0.3,0.6,0.5c0.9-1.2,2.3-2.4,2.5-3.7c0.2-0.8-1.3-2.1-2.3-2.8c-0.3-0.2-1.5,0.8-2.3,1.3
	C46.6,45.6,46.6,45.6,46.1,48.7z M35.5,47.2c-1,1.1-1.8,1.9-2.4,2.9c-0.1,0.1,1.5,1.6,1.7,1.5c0.9-0.5,1.8-1.4,2.4-2.3
	C37.3,49.1,36.3,48.2,35.5,47.2z M37.9,56.6c-0.8-1-1.3-1.7-2.1-2.8c-0.8,1.2-1.3,2-2,3C35.3,56.7,36.3,56.7,37.9,56.6z M34.9,58
	c0,0.3,0,0.6,0,0.9c0.9,0.2,1.9,0.6,2.7,0.4c0.5-0.2,0.8-1.3,1.4-2.4C37.2,57.4,36,57.7,34.9,58z"/>
<path d="M80.2,23.3c1.1,2.9,2.2,5.7,3.2,8.5c-0.6,0.1-1.1,0.1-1.5,0.2c-1.1-2.6-2.1-5.2-3.2-7.9c-0.8,0.3-1.5,0.5-2.1,0.7
	c2.1,2,2,3.7-0.5,5.8c1.4,0.4,2.6,0.7,4,1.1c-0.1,0.4-0.1,1.3-0.3,1.3c-0.6,0.1-1.6,0.2-2-0.2c-1.1-1-2.1-1.6-3.5-0.4
	c-0.2,0.2-1.1-0.4-1.7-0.6c0.3-0.6,0.4-1.3,0.9-1.7c0.4-0.3,1.1-0.3,1.7-0.4c-3.7-3.4-6.7-0.9-9.8,0.8c-0.3,0.2-0.2,1-0.4,2.1
	c2.1-1.2,3.8-2.7,5.4-0.6c0.8,1,1,2.4,1.3,3.6c0,0.1-1.1,0.4-1.7,0.7c-0.3-1.6-0.5-2.9-0.7-4.3c-2.5,1.5-2.8,3-1.2,5.3
	c0.7,1,1.3,1.7-0.3,2.2c-0.7-0.7-1.3-1.4-1.9-2.1c-3.4,1.9-4.8,1.5-6.9-1.5c-0.5-0.7-1.8-0.8-3.1-1.3c2.1-1.5,4.1-2.8,6.4-4.4
	c-2-0.5-3.4-0.8-4.3,1.3c-0.1,0.3-0.8,0.5-1.2,0.6c-0.2,0-0.6-0.4-0.7-0.7c-0.3-1.2-0.5-2.5-0.7-3.8c3.3-1.9,5.3-1.4,8,2.3
	c3.1-1.8,6-3.9,9.3-5.2c5.7-2.3,11.7-4.1,17.6-6.1c0.5-0.2,1.3,0.5,2.3,0.8c-0.9,0.5-1.6,0.8-2.2,1.1c0.8,2.9,1.5,5.6,2.3,8.4
	c-0.2,0.1-0.4,0.3-0.5,0.4c-0.5-0.6-1.4-1.2-1.6-2c-0.6-3-0.9-3.2-3.5-2.4c0,0.9,0,1.8,0,3.4c-1.5-0.9-2.5-1.6-3.5-2.2
	c0.9-0.9,1.7-1.8,2.6-2.6c0.9-0.8,3.9,0,2.1-2.8C85.8,21.3,83,22.3,80.2,23.3z M60,33.6c1.5,0.9,1.4,4.1,3.7,2.7
	c2.4-1.4,0-3.1-0.5-4.7C62.2,32.3,61.3,32.9,60,33.6z M75.5,24.9c-0.3,0-0.6,0-1,0c-0.3,0.9-0.7,1.8-1.1,2.9c1.3,0,2,0,3.3,0
	C76.2,26.7,75.8,25.8,75.5,24.9z"/>
<path d="M22.6,148.8c1.8-0.7,3.5-1.3,5.2-1.8c0.4-0.1,1,0.4,1.5,0.6c-0.3,0.4-0.5,1-0.9,1.1c-3.1,1.2-6.1,2.3-9.6,3.6
	c-0.7-4,3.4-4.9,4.3-7.8c-2,0.7-4,1.4-5.9,2.1c-0.2-0.1-0.4-0.3-0.6-0.4c0.4-0.5,0.6-1.4,1.1-1.6c3-1.2,6-2.3,9.4-3.5
	C27.6,144.9,23.4,145.8,22.6,148.8z"/>
<path d="M206.7,151.2c2.8,1.4,5.4,2.6,7.9,4c1.8,1,1.7,2.7,0.9,4.3c-0.7,1.3-1.6,2.4-3.3,1.5c-0.6-1.7,4.4-2.6,1-4.6
	c-0.9,1.2-1.8,3-2.5,3c-1.8-0.1-3.7-0.9-5.2-1.9C204.1,156.6,204.5,155.4,206.7,151.2z M211.2,156.9c0.1-0.3,0.1-0.6,0.2-1
	c-1.1-0.6-2.2-1.3-3.4-1.7c-0.3-0.1-1,0.8-1.5,1.3c1,0.8,1.9,1.6,3,2.2C209.8,157.8,210.6,157.2,211.2,156.9z"/>
<path d="M18.4,109.9c0.8,2.8,2.6,3.8,5.9,3.7c-2.8,1.7-3.7,3.5-2.1,6.6c-2.7-1.4-4.7-2.7-6.9-0.1c0.8-2.8,0.3-4.8-2.1-6.3
	C15.8,113.7,17.7,112.8,18.4,109.9z"/>
<path d="M212.8,113.3c3-0.2,5.1-0.6,5.5-3.8c1,2.4,2.4,4,5.3,3.8c-1.9,1.7-3.1,3.5-1.8,6.2c-2.3-1.5-4.3-1.7-6.5,0.1
	C216.3,116.8,215.6,114.9,212.8,113.3z"/>
<path d="M41.5,187.3c-0.7-0.6-1.9-1.3-2.5-2.3c-0.5-0.8-0.6-2.1-0.3-2.9c0.5-1.3,1.8-1.6,3.2-1c0.9,0.4,1.8,0.5,2.8,0.8
	c0.4-1.8-1.2-1.4-2-1.9c-0.3-0.2-0.4-0.6-0.6-1c1.7-1.2,2.9-0.4,3.9,0.9c1,1.2,1,2.4-0.2,3.5C44.3,184.7,42.9,186,41.5,187.3z"/>
<path d="M132.4,219.8c-1.3,0.3-2.3,0.8-3.4,0.8c-0.8,0-2.1-0.5-2.3-1c-0.3-1,0.1-2.1,0.2-3.2c0-0.2,0.5-0.3,0.7-0.5
	c0.7-0.6,1.4-1.1,2.1-1.7c-1.1-1.2-1.7-0.2-2.5,0.4c-0.2,0.2-0.9,0-1-0.2c-0.1-0.4-0.1-1.1,0.1-1.2c1-0.5,2.1-1.3,3-1.2
	c0.8,0.1,1.9,1.1,2.1,1.9C132,215.8,132.1,217.9,132.4,219.8z"/>
<path d="M180.9,196.1c1.2,1.9,0.8,3.2-0.7,4.1c-1.5,0.9-2.7,0.1-3.8-0.9c-0.2-0.2-0.4-0.4-0.6-0.7c-1.8-2.2-1.9-4.7-0.3-5.9
	c1.6-1.2,3.3-0.5,5.3,2.2c-1,0.9-2.1,1.8-3.2,2.7c0,0.2,0,0.5,0,0.7c0.7,0,1.7,0.3,2.2-0.1C180.3,197.8,180.5,196.9,180.9,196.1z"/>
<path d="M26.3,155.5c2-2.1-1.6-2.3-0.9-3.9c1.8-0.7,2.6,0.6,3.2,2c0.6,1.4,0.3,2.6-1.2,3.4c-1.7,0.8-3.4,1.7-5,2.5
	c-0.7-1.1-1.6-2.2-1.9-3.4c-0.2-0.8,0.2-2.3,0.8-2.8c0.6-0.5,2.1-0.3,2.9,0.1C25,153.7,25.6,154.7,26.3,155.5z"/>
<path d="M138.9,207.3c3-0.5,1.7,2.2,2.7,2.8c1.1-0.3,2.3-1,3.1-0.6c0.9,0.4,1.4,1.7,1.9,2.7c0.5,1.1,0.8,2.4,1,3.6
	c0.1,0.6-0.3,1.2-0.5,1.8c-0.3-0.1-0.5-0.1-0.8-0.2c-0.5-1.6-0.8-3.3-1.4-4.9c-0.2-0.6-1-0.9-1.5-1.3c-0.3,0.7-0.8,1.3-0.8,1.9
	c0.1,1.2,0.6,2.4,0.8,3.6c0.1,0.5-0.3,1.1-0.5,1.7c-0.4-0.4-1-0.7-1.2-1.1C140.7,214.2,139.9,210.9,138.9,207.3z"/>
<path d="M181.8,183.4c2.3-1.8,2.6,1.2,3.9,1.4c1-3,2.4-3.4,4.8-1.1c1,0.9,2,1.8,2.8,2.9c0.3,0.4,0.2,1.2,0.3,1.8
	c-0.3,0.1-0.5,0.2-0.8,0.2c-1.2-1.2-2.3-2.5-3.6-3.6c-0.4-0.4-1.2-0.3-1.8-0.5c0,0.7-0.3,1.6,0,2.1c0.8,1.2,1.9,2.1,2.8,3.2
	c0.3,0.4,0.2,1.2,0.4,2.3C187.4,188.9,184.7,186.2,181.8,183.4z"/>
<path d="M96.4,215.2c-1.5-0.3-2.7-0.6-4-0.9c-0.2,0.2-0.3,0.3-0.5,0.5c0.6,0.6,1,1.4,1.7,1.7c0.6,0.2,1.4-0.3,2.2-0.1
	c-0.8,2.1-2.2,2.3-3.8,1.5c-1.7-0.8-2.1-3.5-1.1-5.9c0.7-1.7,1.8-2.8,3.8-2.3C96.5,210.1,97.1,211.9,96.4,215.2z"/>
<path d="M120.4,216.3c-0.6,4.7-0.6,4.7-1.9,5c-0.2-3.8-0.4-7.6-0.6-11.4c4-1.2,6.1-0.8,6.1,1.3c-0.7,0-1.4,0.1-2.1,0.1
	c-0.6,0-1.2,0.1-2.1,0.2c0,0.9,0.1,1.7,0.1,2.3c1.3,1,3.8-1,3.9,2.2C122.8,216.1,121.6,216.2,120.4,216.3z"/>
<path d="M151.4,208.8c0-2,1.3-3.5,3.1-3.5c2.1,0,4.2,2.6,4.2,5.2c0,2.1-1.4,3.7-3.2,3.6C153.3,214.1,151.4,211.6,151.4,208.8z
	 M157.6,210.4c-1.2-1.3-2.1-2.2-3-3.2c-0.5,0.6-1.4,1.4-1.3,1.8c0.5,1.2,1.4,2.2,2.2,3.2C156,211.7,156.6,211.3,157.6,210.4z"/>
<path d="M33.4,165.7c1.9,0,3.4,1.6,3.4,3.5c-0.1,2.3-2.6,4.5-5,4.4c-1.8-0.1-3.2-1.6-3.2-3.4C28.6,167.9,31,165.7,33.4,165.7z
	 M35.3,169.5c0-0.3-0.1-0.6-0.1-1c-0.7-0.3-1.6-1.1-1.9-0.9c-1.1,0.6-1.9,1.6-2.8,2.4c0.5,0.5,1.3,1.6,1.6,1.5
	C33.2,171.1,34.2,170.3,35.3,169.5z"/>
<path d="M198.5,170c2.4,0,4.9,2.5,4.9,4.8c0,1.9-1.5,3.2-3.3,3.2c-2.3-0.1-4.8-2.5-4.8-4.7C195.2,171.4,196.6,169.9,198.5,170z
	 M202.4,174.3c-1.7-1-2.8-1.8-4-2.4c-0.2-0.1-0.9,1-1.3,1.5c1.1,0.9,2.1,1.8,3.2,2.6C200.4,176.1,201.2,175.2,202.4,174.3z"/>
<path d="M206.8,150.8c0.7-1.6,0.7-1.6,5.6-1.5c-0.7-1.9-4.1-1.9-3.6-5.3c3.1,2.5,6,4.7,8.7,7c0.5,0.4,0.5,1.5,0.5,2.3
	c0,0.3-0.5,0.6-0.8,1c-0.3-0.3-0.9-0.7-0.9-1c0-1.6-1-1.9-2.3-2C211.7,151.1,209.4,150.9,206.8,150.8z"/>
<path d="M206.1,167.1c-2.6-0.2-4.8-2.4-4.7-4.6c0.1-2.1,1.5-3.3,3.6-3.1c2.5,0.2,4.8,2.5,4.6,4.7C209.5,166,208,167.3,206.1,167.1z
	 M208.7,163.5c-1.8-1-2.9-1.7-4.2-2.2c-0.2-0.1-0.9,0.9-1.4,1.4c1.1,0.8,2.1,1.7,3.3,2.4C206.7,165.3,207.4,164.4,208.7,163.5z"/>
<path d="M66.7,200.5c-1.3-1.3-2.1-2.1-3-2.9c-0.2,0.2-0.4,0.3-0.6,0.5c0.4,0.6,0.6,1.2,1.1,1.8c0.9,1.2,1.9,2.5,0.7,3.8
	c-0.6,0.7-2.1,1.2-3,1c-1.7-0.3-2.7-1.6-2.5-3.5c0-0.2,0.1-0.4,0.3-1c1.1,1.2,2.1,2.2,3.1,3.2c0.2-0.2,0.5-0.4,0.7-0.7
	c-0.4-0.6-0.8-1.2-1.2-1.8c-0.9-1.2-1.6-2.5-0.4-3.8c0.6-0.6,1.8-1,2.6-0.7C66.1,196.6,67.2,197.8,66.7,200.5z"/>
<path d="M162.5,211.6c-0.5-0.2-1.4-0.3-1.6-0.7c-1.2-2.1-2.2-4.3-3.2-6.3c1.1-0.8,2-1.4,2.9-2c1.2-0.8,2.3-0.6,3,0.6
	c1,1.7,1.9,3.4,2.6,5.2c0.2,0.4-0.4,1-0.8,2.1c-1.1-2.2-1.8-3.8-2.7-5.2c-0.3-0.5-1.1-0.6-1.6-0.9c-0.2,0.6-0.7,1.3-0.6,1.8
	c0.6,1.7,1.4,3.3,2.2,4.9C162.7,211.2,162.6,211.4,162.5,211.6z"/>
<path d="M108.5,216.1c0,2.7-1.5,4.6-3.7,4.5c-2-0.1-3.3-1.7-3.3-4.1c0-2.7,1.5-4.7,3.5-4.7C107,211.9,108.5,213.6,108.5,216.1z
	 M102.6,216.4c1,1.1,1.7,1.8,2.3,2.5c0.6-0.9,1.6-1.7,1.6-2.7c0.1-0.8-0.9-1.6-1.5-2.4C104.3,214.5,103.6,215.3,102.6,216.4z"/>
<path d="M198.3,182.1c-1.2-1-2.3-2.1-3.6-3c-0.6-0.4-1.5-0.4-2.2-0.5c0.2,0.8,0.2,1.8,0.6,2.4c0.7,0.9,1.8,1.5,2.5,2.4
	c0.4,0.5,0.3,1.2,0.5,1.9c-0.2,0.1-0.5,0.1-0.7,0.2c-2-1.7-4-3.5-5.9-5.2c0.7-1.1,1.3-2.2,2.1-3.2c0.8-1.2,2-1.2,3.1-0.4
	c1.4,1.1,2.8,2.3,4.1,3.5c0.3,0.3,0.1,1.2,0.2,1.8C198.7,182,198.5,182.1,198.3,182.1z"/>
<path d="M83.7,215.1c-1.4-0.3-2.3-0.6-3.3-0.8c-1.8-0.4-2.2-1.6-1.8-3.2c0.5-1.9,1.2-3.7,1.9-5.6c0.2-0.1,0.5-0.2,0.7-0.2
	c0.2,0.6,0.7,1.2,0.6,1.8c-0.2,1.2-0.9,2.4-1.1,3.6c-0.1,0.7,0.3,1.4,0.5,2.2c0.6-0.5,1.5-0.8,1.8-1.4c0.7-1.4,1.1-2.9,1.6-4.4
	c0.2-0.1,0.4-0.1,0.7-0.2c0.2,0.6,0.7,1.3,0.6,1.8C85.2,210.8,84.4,213,83.7,215.1z"/>
<path d="M32.9,177.3c0.1-0.6,0.1-1.4,0.4-1.7c1.7-1.5,3.5-2.9,5.1-4.3c1,1,2.2,1.8,2.6,2.8c0.4,0.9,0.3,2.5-0.3,3.3
	c-1.2,1.5-2.9,2.6-4.4,3.8c-0.2-0.1-0.5-0.2-0.7-0.3c0.2-0.6,0.2-1.5,0.5-1.9c0.9-1,2.1-1.7,3-2.7c0.3-0.4,0.3-1.1,0.4-1.7
	c-0.6-0.1-1.4-0.5-1.8-0.2c-1.4,0.9-2.6,1.9-4,2.9C33.4,177.4,33.1,177.4,32.9,177.3z"/>
<path d="M133.4,217.8c1.6,0,3,0,4.4,0c0-0.3,0-0.6,0.1-0.9c-0.8-0.2-1.6-0.3-2.3-0.5c-1.5-0.2-2.7-1-2.5-2.5c0.1-0.9,1-2,1.9-2.5
	c1.4-0.7,2.7-0.4,3.7,1.7c-1.5,0-2.8,0-4,0c0,0.3,0,0.5-0.1,0.8c0.7,0.1,1.4,0.3,2.1,0.4c1.6,0.2,3.1,0.9,2.9,2.7
	c-0.1,1-1.1,2.2-2.1,2.7C135.9,220.5,134.4,220,133.4,217.8z"/>
<path d="M56.8,190.8c1.2,0.7,2.2,1.3,3.2,1.9c1.3,0.8,1.5,2,0.7,3.3c-1.1,1.7-2.3,3.4-3.4,5c-0.3,0-0.5,0-0.8-0.1c0-0.7-0.2-1.4,0-2
	c0.6-1.2,1.6-2.2,2.2-3.4c0.2-0.5-0.1-1.2-0.1-1.9c-0.6,0.1-1.5,0.1-1.8,0.5c-1.1,1.2-2,2.6-3.5,4.6c-0.3-1.1-0.7-1.9-0.5-2.2
	C54.1,194.6,55.5,192.7,56.8,190.8z"/>
<path d="M168.6,196.4c-0.9,0.5-1.5,0.9-2.3,1.4c-0.3-0.6-0.6-1.1-1-1.6c2-1.3,3.9-2.6,5.9-4c0.4,0.5,0.7,0.9,1.2,1.4
	c-0.8,0.6-1.4,1.1-2.2,1.7c1.5,2.3,2.9,4.5,4.3,6.8c0.3,0.6,0.1,1.4,0.1,2.2c-0.3,0-0.6,0.1-0.8,0.1
	C172.1,201.8,170.4,199.2,168.6,196.4z"/>
<path d="M185,188.6c-1.9,0.7-4.8,1-2.4,3.8c3.1,3.7,2.7-1.1,4.1-1.9c1.2,1.6,1.2,2.9,0.1,4.2c-1.2,1.3-2.7,1.3-4,0.2
	c-1-0.9-2.2-2-2.5-3.2c-0.3-1,0.1-2.7,0.8-3.5c0.7-0.7,2.2-0.5,3.4-0.7C184.6,187.8,184.8,188.2,185,188.6z"/>
<path d="M111.2,221.1c-0.3-0.5-0.9-0.9-0.9-1.4c-0.2-2.1,0.5-4.1-0.6-6.3c-0.4-0.8,1.1-2.7,2.1-3.9c0.2-0.3,1.5,0.2,2.3,0.3
	c-0.4,0.4-0.8,0.9-1.1,1.3c-0.2,0.3-0.5,1.1-0.5,1.1c2.2,1.1,0.3,1.8,0,2.9c-0.6,1.8-0.4,3.8-0.6,5.8
	C111.6,220.9,111.4,221,111.2,221.1z"/>
<path d="M71.6,197.3c0.1,1.7,0.2,2.6,0.1,3.5c0,0.5-0.3,1.1-0.7,1.3c-2.1,1.2-2.7,2.4-2.3,4.7c0.1,0.4-0.5,0.9-0.8,1.3
	c-0.6-0.6-1.6-1.2-1.7-1.9c-0.1-0.8,0.6-1.7,0.9-2.6c0.4-1.1,0.3-2.5,1-3.3C69,199.2,70.3,198.3,71.6,197.3z"/>
<path d="M89.4,205.5c0.4,1.6,0.8,2.5,0.9,3.4c0.1,0.4,0,1.1-0.3,1.3c-2.3,1.4-2.6,3.2-1.4,5.4c0.1,0.2-0.2,1-0.3,1
	c-0.6,0.1-1.5,0.1-1.7-0.2c-0.4-0.6-0.6-1.5-0.6-2.3c0.1-1.8,0.1-3.7,0.7-5.3C87.2,207.5,88.5,206.6,89.4,205.5z"/>
<path d="M33.1,157.2c-0.7,1.3-1,2.1-1.5,2.9c-0.2,0.3-0.6,0.7-0.8,0.7c-3-1-4.3,0.6-5.3,3c-0.1,0.2-0.4,0.2-0.6,0.3
	c-1.7-1.9-1.6-2.5,0.3-3.8c1.4-0.9,2.5-2.4,3.9-3C30.3,156.8,31.8,157.2,33.1,157.2z"/>
<path d="M78.6,201.1c0.3,1.7,0.5,2.6,0.6,3.5c0,0.4-0.2,0.9-0.5,1.2c-2.2,1.6-2.3,2-2,5.1c0,0.4-0.4,1.1-0.6,1.1
	c-0.6,0-1.4-0.2-1.7-0.6c-0.3-0.6-0.4-1.5-0.2-2.2c0.3-1.8,0.6-3.7,1.4-5.3C76.1,202.8,77.5,202,78.6,201.1z"/>
<path d="M57,185.9c0,0.7,0.2,1.5-0.2,2c-1.7,2.3-3.5,4.6-5.4,6.8c-0.4,0.4-1.2,0.4-1.9,0.5c-0.1-0.2-0.2-0.5-0.3-0.7
	c2.3-2.9,4.6-5.8,6.9-8.6C56.3,185.9,56.6,185.9,57,185.9z"/>
<path d="M205.3,171.7c-2.8-1.8-5.5-3.6-8.3-5.4c-0.4-0.3-0.5-1-0.7-1.6c0.5,0,1.2-0.2,1.6,0.1c2.5,1.6,5,3.2,7.5,5
	c0.4,0.3,0.5,1.1,0.7,1.7C205.9,171.5,205.6,171.6,205.3,171.7z"/>
<path d="M51.4,181.1c-0.1,0.7-0.1,1.5-0.5,2c-2.1,2.4-4.3,4.7-6.7,7.2c-0.4-0.3-0.8-0.7-1.4-1.1c2.6-2.8,5.1-5.5,7.6-8.2
	C50.8,180.9,51.1,181,51.4,181.1z"/>
<path d="M149,207.8c0.7,2.2,1.5,4.4,2.2,6.7c0.1,0.4-0.2,1-0.4,1.5c-0.4-0.3-1.1-0.6-1.2-1c-0.7-1.9-1.4-3.8-1.9-5.8
	c-0.1-0.5,0.3-1.1,0.5-1.6C148.5,207.7,148.8,207.8,149,207.8z"/>
<path d="M25.5,165.5c2.3-1.4,4.5-2.8,6.7-4.1c0.2,0.1,0.4,0.2,0.6,0.2c-0.2,0.6-0.2,1.5-0.6,1.9C28.1,166.7,26.6,167.1,25.5,165.5z"
	/>
<path d="M73.9,201.5c0.2,0.6,0.7,1.2,0.5,1.7c-0.8,2-1.7,3.9-2.6,5.7c-0.2,0.3-0.8,0.4-1.2,0.6c-0.1-0.4-0.4-1-0.3-1.3
	c0.9-2.2,2-4.4,3-6.6C73.4,201.6,73.7,201.5,73.9,201.5z"/>
<path d="M43.7,62.9c1.2-0.4,2.4-0.8,3.6-1.1c0.1,0.2,0.2,0.4,0.3,0.6c-0.6,0.4-1.3,0.8-1.7,1c-0.5,1.1-1,2.1-1.4,3.1
	c-0.2-0.1-0.5-0.1-0.7-0.2C43.8,65.1,43.8,64,43.7,62.9C43.8,62.9,43.7,62.9,43.7,62.9z"/>
<path class="st0" d="M203.3,118.9c0,47.6-38.9,86.4-86.6,86.3C69.4,205,30.8,166.3,30.8,119c0-47.3,38.7-86.2,85.9-86.3
	C164.4,32.6,203.3,71.3,203.3,118.9z M147.4,97.6c0.3-0.8,0.5-1.6,0.8-2.3c2.6-6.1,5.5-12.2,7.8-18.5c1.5-4,2.4-8.3,3-12.5
	c0.4-2.7-1.2-4.9-3.7-6c-2.4-1.1-4.6,0-6.2,1.7c-1.5,1.6-2.8,3.6-3.6,5.7c-5.8,14.5-11.4,29.1-17.2,43.6c-3.5,9-7.2,18-12.7,26
	c-0.6,0.9-1.3,1.9-2.2,2.3c-1.1,0.5-2.8,0.9-3.7,0.3c-0.9-0.5-1.5-2.2-1.5-3.3c0-1.5,0.6-3.1,1.2-4.5c2.8-5.9,5.8-11.7,8.6-17.6
	c1.3-2.7,2.6-5.6,3.5-8.4c0.6-1.7-0.1-3.5-1.8-4.5c-1.7-0.9-3.3-0.2-4.5,1c-1.2,1.3-2.4,2.8-3.2,4.3c-4.4,8.1-8.7,16.4-13.2,24.5
	c-1.5,2.7-3.3,5.3-5.4,7.6c-0.8,0.9-2.8,0.6-4.3,0.8c-0.2-1.3-1-2.8-0.5-3.9c1.8-4.5,4-8.8,5.9-13.3c1.8-4.3,3.6-8.7,4.8-13.2
	c1.1-4.3-1.2-7.1-5.5-7.9c-4.1-0.8-7.8,0.4-10.6,3.3c-3.4,3.6-6.5,7.4-9.3,11.5c-4.8,7-9.2,14.2-13.9,21.3c-0.5,0.8-1.7,1.1-2.5,1.6
	c0-1,0.1-2,0.1-3c0-0.1,0.1-0.3,0.2-0.4c4.6-8.6,9.2-17.1,13.8-25.8c1-1.9,1.7-3.9,2.2-5.9c0.2-0.7-0.6-2-1.2-2.3
	c-2.4-1.2-7.4,1.3-8.4,4.2c0.9-0.2,1.6-0.5,2.3-0.6c1.1-0.1,2.2-0.2,3.3-0.2c-0.2,1.1-0.2,2.4-0.7,3.3c-3,5.4-6.1,10.8-9.1,16.2
	c-2.4,4.3-4.7,8.7-6.8,13.1c-0.8,1.6-1,3.7,0.7,5c1.7,1.3,3.5,0.3,4.7-0.9c2.5-2.4,5-4.8,6.9-7.6c4.8-7.2,9.1-14.7,14-21.8
	c2-2.9,4.9-5.3,7.7-7.4c2-1.5,4.9-1.8,7.1-0.1c2.1,1.7,1.3,4.1,0.9,6.4c0,0.1,0,0.2-0.1,0.2c-2.6,6-5.2,11.9-7.6,18
	c-1.1,2.8-2.4,5.7-2.8,8.7c-0.5,4.4,2.8,6.5,6.9,4.7c0.6-0.3,1.3-0.6,1.7-1.2c3.1-4.2,6.5-8.3,9.2-12.7c4-6.7,7.4-13.7,11.2-20.5
	c0.5-0.9,1.1-1.7,1.8-2.4c0.4-0.4,1.1-0.5,1.6-0.7c0.2,0.6,0.7,1.3,0.5,1.9c-0.3,1.2-0.8,2.4-1.3,3.5c-2.7,5.4-5.5,10.8-8.1,16.2
	c-1.4,3-2.7,6.2-3.5,9.5c-1.1,5.1,3.2,8.7,8.1,6.5c1.9-0.8,3.8-2.4,4.8-4.2c2.7-4.4,5.3-8.9,7.3-13.7c5.9-14.3,11.4-28.8,17.1-43.1
	c2-5,4.1-9.9,6.2-14.8c1.1-2.5,3.6-3.9,5.4-3.1c1.6,0.6,2.1,2.6,1.2,5.4c-0.1,0.2-0.1,0.4-0.2,0.7c-3.5,8.3-7.1,16.6-10.5,25
	c-1.2,3-2.4,5.6-6.4,4.8c0,0-0.1,0.1-0.3,0.3c0.2,0.2,0.4,0.6,0.7,0.8c2.6,1.5,2.2,3.4,0.9,5.7c-6.2,10.9-12.2,22-18.4,32.9
	c-6.8,11.8-13.7,23.6-18.4,36.6c-1.7,4.6-3.3,9.2-2.2,14.2c0.7,3.2,2.3,6,5.6,7c3.2,1,6.1-0.1,8.3-2.5c1.5-1.7,3.1-3.5,4-5.5
	c2.6-5.6,5.2-11.3,7.1-17.2c5.2-15.3,9.1-31.1,16.9-45.4c2.7-4.9,5.2-9.8,7.8-14.8c1,0.6,1.6,1.1,2.2,1.4c-1.1,2.1-2.1,3.7-2.9,5.4
	c-2.1,4.8-4.3,9.6-6.1,14.5c-1,2.9-1.1,6.3,1.7,8.5c2.8,2.2,5.9,0.9,8.7-0.5c9.1-4.6,15.1-12.3,20.3-20.8c0.7-1.1,1.3-2.7-0.2-4.3
	c-0.7,1-1.3,1.8-1.8,2.7c-3.3,5.6-7.1,10.8-11.9,15.1c-2.9,2.5-6,4.7-10,4.9c-2.8,0.2-4.1-0.9-3.9-3.7c0.4-7.4,4.4-13.4,8.2-19.5
	c2.6,2.3,4.9,4.4,7.3,6.5c5.6-7.7,11-15.1,16.8-23c-4.5,0-8.2,0-12.3,0c3.7-4.7,7.3-9.2,10.7-13.6c3.1-4.1,6.1-8.2,7.4-13.3
	c0.5-2.1,0.5-4.2-1.3-5.6c-1.7-1.5-3.7-1.4-5.8-0.5c-4.1,1.8-6.8,5.1-9,8.7c-4.4,6.9-8.7,13.8-12.6,21
	C153.6,97.6,151.2,98.5,147.4,97.6z M134.5,81.6c0-8-5.8-14.2-13.3-14.2c-7.1,0-13.1,6.2-13.1,13.6c0,8.1,5.8,14.5,13.3,14.4
	C128.6,95.5,134.5,89.3,134.5,81.6z"/>
<path class="st0" d="M149.2,19.7c-3.3-0.9-6.6-1.8-9.9-2.7c-0.4-0.1-1-0.6-1-0.9c0-0.4,0.5-0.8,0.9-1.1c1.9-1.3,5-0.9,7.1,1.1
	C147.4,17.3,148.2,18.6,149.2,19.7C149.2,19.8,149.2,19.7,149.2,19.7z"/>
<path class="st0" d="M166.4,28.3c-1.8-1-3.6-1.8-5.2-3c-0.6-0.4-0.7-1.6-1.1-2.5c0.9-0.4,1.9-1.1,2.7-1
	C166,22.4,167.4,25,166.4,28.3z"/>
<path class="st0" d="M123,22.2c-0.1-1.7-1.4-1.2-2.5-1.4c-0.5-0.1-1-0.5-1.6-0.8c0.5-0.2,1-0.6,1.5-0.6c1.1-0.1,2.1,0,3.5,0
	c0.1-0.7,0.2-1.6,0.3-2.9c0.6,0.2,1.5,0.2,1.7,0.6c0.7,1.1-1,6.1-2.2,6.8c-0.1,0-0.1,0.2-0.2,0.2c-1,0-2,0-3,0
	c-0.1,0-0.2-0.8-0.2-0.8C121.2,22.8,122.1,22.5,123,22.2z"/>
<path class="st0" d="M103.4,17.6c1.2-0.3,2.3-0.5,3.3-0.8c1.2,4.1,1,4.5-2.4,5.3c-0.2-0.7-0.4-1.5-0.6-2.2
	C103.7,19.2,103.6,18.6,103.4,17.6z"/>
<path class="st0" d="M156.4,27.4c-1.3,2.3-2.7,2.3-4.1,1.4c-0.2-0.2-0.1-0.9-0.1-1.4C153.5,27.4,154.8,27.4,156.4,27.4z"/>
<path class="st0" d="M184.5,48.6c0.9-1.2,1.5-2,2.2-2.9c2.6,0.9,2.3,3,2.6,5.3C187.4,50.1,186,49.4,184.5,48.6z"/>
<path class="st0" d="M180.9,40.2c-1.4,0.5-1.3,2.7-3.4,1.7c-2.8-1.3-0.7-2.7-0.1-4.4C178.6,38.4,179.7,39.3,180.9,40.2z"/>
<path class="st0" d="M46.1,48.7c0.5-3.1,0.5-3.1-1.4-4.8c0.8-0.5,2-1.5,2.3-1.3c1,0.7,2.4,2,2.3,2.8c-0.3,1.3-1.6,2.5-2.5,3.7
	C46.5,49.1,46.3,48.9,46.1,48.7z"/>
<path class="st0" d="M35.5,47.2c0.8,1,1.8,1.9,1.7,2.1c-0.6,0.9-1.4,1.7-2.4,2.3c-0.2,0.1-1.8-1.4-1.7-1.5
	C33.7,49.1,34.6,48.3,35.5,47.2z"/>
<path class="st0" d="M37.9,56.6c-1.6,0.1-2.7,0.2-4.1,0.3c0.7-1,1.2-1.9,2-3C36.6,54.9,37.2,55.6,37.9,56.6z"/>
<path class="st0" d="M34.9,58c1.2-0.3,2.3-0.6,4.1-1.1c-0.6,1.1-0.9,2.2-1.4,2.4c-0.8,0.2-1.8-0.2-2.7-0.4
	C34.9,58.7,34.9,58.3,34.9,58z"/>
<path class="st0" d="M60,33.6c1.3-0.8,2.2-1.3,3.2-2c0.5,1.6,2.9,3.3,0.5,4.7C61.5,37.8,61.6,34.6,60,33.6z"/>
<path class="st0" d="M75.5,24.9c0.4,0.9,0.7,1.8,1.2,2.9c-1.2,0-2,0-3.3,0c0.4-1.1,0.8-2,1.1-2.9C74.8,24.9,75.2,24.9,75.5,24.9z"/>
<path class="st0" d="M211.2,156.9c-0.6,0.3-1.4,0.9-1.8,0.8c-1.1-0.6-2-1.4-3-2.2c0.5-0.4,1.2-1.4,1.5-1.3c1.2,0.4,2.3,1.1,3.4,1.7
	C211.3,156.2,211.3,156.6,211.2,156.9z"/>
<path class="st0" d="M157.6,210.4c-1,0.9-1.5,1.4-2.1,1.9c-0.8-1.1-1.7-2.1-2.2-3.2c-0.1-0.3,0.8-1.2,1.3-1.8
	C155.5,208.2,156.4,209.1,157.6,210.4z"/>
<path class="st0" d="M35.3,169.5c-1.1,0.7-2.1,1.6-3.3,2.1c-0.3,0.1-1.1-1-1.6-1.5c0.9-0.8,1.8-1.8,2.8-2.4c0.3-0.2,1.3,0.6,1.9,0.9
	C35.2,168.9,35.3,169.2,35.3,169.5z"/>
<path class="st0" d="M202.4,174.3c-1.1,0.9-1.9,1.8-2.1,1.6c-1.1-0.7-2.2-1.7-3.2-2.6c0.5-0.5,1.2-1.6,1.3-1.5
	C199.6,172.5,200.7,173.3,202.4,174.3z"/>
<path class="st0" d="M208.7,163.5c-1.2,0.9-2,1.8-2.2,1.7c-1.2-0.7-2.2-1.6-3.3-2.4c0.5-0.5,1.1-1.5,1.4-1.4
	C205.7,161.8,206.9,162.5,208.7,163.5z"/>
<path class="st0" d="M102.6,216.4c1-1.1,1.8-1.9,2.5-2.6c0.5,0.8,1.5,1.7,1.5,2.4c-0.1,0.9-1.1,1.8-1.6,2.7
	C104.2,218.1,103.6,217.4,102.6,216.4z"/>
<path d="M147.4,97.6c3.8,0.8,6.2,0,8.1-3.5c3.9-7.1,8.3-14.1,12.6-21c2.3-3.6,5-6.9,9-8.7c2.1-0.9,4-1,5.8,0.5
	c1.7,1.5,1.8,3.5,1.3,5.6c-1.2,5.1-4.3,9.2-7.4,13.3c-3.4,4.5-7,8.9-10.7,13.6c4,0,7.8,0,12.3,0c-5.8,7.9-11.2,15.4-16.8,23
	c-2.4-2.2-4.8-4.2-7.3-6.5c-3.8,6.2-7.8,12.1-8.2,19.5c-0.2,2.8,1.1,3.9,3.9,3.7c4-0.3,7.1-2.4,10-4.9c4.9-4.3,8.7-9.5,11.9-15.1
	c0.5-0.8,1.1-1.6,1.8-2.7c1.5,1.6,0.9,3.2,0.2,4.3c-5.2,8.4-11.3,16.1-20.3,20.8c-2.7,1.4-5.9,2.7-8.7,0.5c-2.8-2.2-2.7-5.6-1.7-8.5
	c1.7-4.9,4-9.7,6.1-14.5c0.8-1.7,1.8-3.3,2.9-5.4c-0.6-0.4-1.2-0.8-2.2-1.4c-2.6,4.9-5.1,9.9-7.8,14.8
	c-7.9,14.3-11.8,30.1-16.9,45.4c-2,5.9-4.6,11.5-7.1,17.2c-0.9,2-2.5,3.8-4,5.5c-2.2,2.4-5.2,3.5-8.3,2.5c-3.3-1-4.9-3.8-5.6-7
	c-1.2-5,0.5-9.6,2.2-14.2c4.7-12.9,11.6-24.7,18.4-36.6c6.3-10.9,12.2-21.9,18.4-32.9c1.3-2.3,1.6-4.1-0.9-5.7
	c-0.3-0.2-0.5-0.5-0.7-0.8c0.2-0.2,0.2-0.3,0.3-0.3c3.9,0.8,5.2-1.8,6.4-4.8c3.4-8.4,7-16.7,10.5-25c0.1-0.2,0.2-0.4,0.2-0.7
	c0.9-2.8,0.5-4.8-1.2-5.4c-1.8-0.7-4.3,0.6-5.4,3.1c-2.1,4.9-4.3,9.8-6.2,14.8c-5.7,14.4-11.3,28.8-17.1,43.1
	c-2,4.8-4.6,9.3-7.3,13.7c-1.1,1.7-2.9,3.4-4.8,4.2c-4.8,2.2-9.2-1.4-8.1-6.5c0.7-3.3,2-6.4,3.5-9.5c2.6-5.5,5.4-10.8,8.1-16.2
	c0.6-1.1,1-2.3,1.3-3.5c0.1-0.6-0.3-1.2-0.5-1.9c-0.5,0.2-1.2,0.3-1.6,0.7c-0.7,0.7-1.3,1.6-1.8,2.4c-3.7,6.8-7.2,13.8-11.2,20.5
	c-2.7,4.5-6.1,8.5-9.2,12.7c-0.4,0.5-1.1,0.9-1.7,1.2c-4.1,1.8-7.4-0.3-6.9-4.7c0.4-3,1.6-5.9,2.8-8.7c2.4-6,5.1-12,7.6-18
	c0-0.1,0-0.2,0.1-0.2c0.3-2.2,1.2-4.7-0.9-6.4c-2.2-1.7-5-1.4-7.1,0.1c-2.8,2.1-5.7,4.5-7.7,7.4c-4.9,7.1-9.2,14.6-14,21.8
	c-1.9,2.8-4.4,5.3-6.9,7.6c-1.2,1.2-3,2.2-4.7,0.9c-1.7-1.3-1.5-3.4-0.7-5c2.1-4.5,4.4-8.8,6.8-13.1c3-5.4,6.1-10.8,9.1-16.2
	c0.5-1,0.5-2.2,0.7-3.3c-1.1,0.1-2.2,0.1-3.3,0.2c-0.7,0.1-1.4,0.3-2.3,0.6c1.1-2.9,6-5.3,8.4-4.2c0.7,0.3,1.4,1.7,1.2,2.3
	c-0.5,2-1.2,4.1-2.2,5.9c-4.5,8.6-9.2,17.2-13.8,25.8c-0.1,0.1-0.2,0.3-0.2,0.4c-0.1,1-0.1,2-0.1,3c0.9-0.5,2-0.9,2.5-1.6
	c4.7-7.1,9.1-14.3,13.9-21.3c2.8-4,5.9-7.9,9.3-11.5c2.8-2.9,6.4-4.1,10.6-3.3c4.4,0.9,6.7,3.7,5.5,7.9c-1.2,4.5-3,8.9-4.8,13.2
	c-1.9,4.5-4.1,8.8-5.9,13.3c-0.4,1,0.3,2.6,0.5,3.9c1.5-0.2,3.5,0,4.3-0.8c2.1-2.3,3.9-4.9,5.4-7.6c4.5-8.1,8.8-16.3,13.2-24.5
	c0.9-1.6,2-3,3.2-4.3c1.2-1.3,2.8-2,4.5-1c1.7,1,2.4,2.7,1.8,4.5c-1,2.9-2.2,5.7-3.5,8.4c-2.8,5.9-5.8,11.7-8.6,17.6
	c-0.7,1.4-1.2,3-1.2,4.5c0,1.2,0.6,2.8,1.5,3.3c0.9,0.5,2.6,0.1,3.7-0.3c0.9-0.4,1.6-1.4,2.2-2.3c5.5-8,9.2-17,12.7-26
	c5.7-14.5,11.4-29.1,17.2-43.6c0.8-2.1,2.1-4.1,3.6-5.7c1.6-1.7,3.7-2.8,6.2-1.7c2.6,1.1,4.1,3.4,3.7,6c-0.6,4.2-1.6,8.5-3,12.5
	c-2.3,6.3-5.1,12.3-7.8,18.5C147.9,96.1,147.7,96.8,147.4,97.6z M144,104.8c-1.4,2.4-2.5,4.6-3.8,6.8c-7.4,12.3-15,24.5-22.3,36.8
	c-5.9,10-10.9,20.5-13.7,31.9c-0.5,2-0.6,4.2-0.3,6.3c0.5,3.2,3.2,4.6,6.4,3.8c2.7-0.7,4.1-2.9,5.1-5.2c3.4-8.6,6.9-17.2,9.8-25.9
	c3.5-10.4,6.4-21,11.2-30.9c3.4-7,6.8-13.9,10.3-21C145.8,106.4,145,105.7,144,104.8z M157.3,97.4c0.1,0.2,0.2,0.4,0.3,0.7
	c1.2-0.4,2.9-0.4,3.6-1.2c4-4.5,8.1-9,11.6-13.9c2.7-3.8,4.8-8.1,7-12.2c0.3-0.6,0.1-1.9-0.4-2.2c-0.4-0.4-1.7-0.2-2.3,0.2
	c-1.2,0.8-2.4,1.7-3.4,2.8C167,79.3,162.7,88.7,157.3,97.4z"/>
<path class="st1" d="M134.5,81.6c0,7.6-5.9,13.8-13.1,13.9c-7.5,0-13.3-6.3-13.3-14.4c0-7.4,6-13.6,13.1-13.6
	C128.7,67.4,134.5,73.7,134.5,81.6z"/>
<path class="st0" d="M144,104.8c1,0.9,1.8,1.6,2.6,2.4c-3.5,7.1-6.9,14-10.3,21c-4.8,9.9-7.8,20.5-11.2,30.9
	c-2.9,8.8-6.4,17.3-9.8,25.9c-0.9,2.3-2.3,4.5-5.1,5.2c-3.2,0.9-5.8-0.5-6.4-3.8c-0.3-2-0.2-4.3,0.3-6.3
	c2.8-11.4,7.8-21.9,13.7-31.9c7.3-12.3,14.9-24.6,22.3-36.8C141.5,109.4,142.7,107.2,144,104.8z"/>
<path class="st0" d="M157.3,97.4c5.4-8.7,9.7-18.1,16.5-25.9c1-1.1,2.2-2.1,3.4-2.8c0.6-0.4,1.8-0.5,2.3-0.2
	c0.5,0.4,0.7,1.7,0.4,2.2c-2.2,4.1-4.3,8.4-7,12.2c-3.5,4.9-7.6,9.4-11.6,13.9c-0.7,0.8-2.4,0.8-3.6,1.2
	C157.5,97.8,157.4,97.6,157.3,97.4z"/>
</svg>
